<?xml version="1.0" encoding="utf-8"?>
<!-- Generator: Adobe Illustrator 18.0.0, SVG Export Plug-In . SVG Version: 6.00 Build 0)  -->
<!DOCTYPE svg PUBLIC "-//W3C//DTD SVG 1.1//EN" "http://www.w3.org/Graphics/SVG/1.1/DTD/svg11.dtd">
<svg version="1.1" id="Julia_Avatar" xmlns="http://www.w3.org/2000/svg" xmlns:xlink="http://www.w3.org/1999/xlink" x="0px"
	 y="0px" viewBox="0 0 1024 942.1" enable-background="new 0 0 1024 942.1" xml:space="preserve">
<path display="none" fill="none" stroke="#000000" stroke-width="60" stroke-miterlimit="10" d="M906.4,593.1
	C854.1,765,697.3,889.9,512,889.9c-174.2,0-323.2-110.3-383.9-266.4"/>
<path display="none" fill="none" stroke="#000000" stroke-width="60" stroke-miterlimit="10" d="M261.6,437.5"/>
<path display="none" fill="none" stroke="#000000" stroke-width="60" stroke-miterlimit="10" d="M1071.4,622.1
	c12.1-39.7,18.6-81.9,18.6-125.6C1090,263.1,905.1,74,677,74S264,263.1,264,496.4c0,55.1,10.3,107.8,29.1,156.1"/>
<path d="M948.3,474.1c0,246.4-197.1,446.1-440.3,446.1c-243.2,0-440.3-199.7-440.3-446.1C67.7,227.7,264.8,27.9,508,27.9
	c47.5,0,95.6,1.4,138.5,15.5c25.7,8.5,48,25.5,71.4,38.3c12.7,7,24.6,8.1,36.6,16.3c5.7,3.9,24.3,5.5,37.5,9.4
	c16.5,4.9,33.5,15.4,40,21c8.9,7.6,35.2,38.3,53.5,69.5c7.7,13.2,30.7,69.5,36.2,83.7c5.5,14.3,9.8,29.1,13,44.1
	c6.8,31.1,10.5,62.9,12.3,94.7C948.1,438.2,948.3,456.2,948.3,474.1z"/>
<path d="M895,105.9"/>
<path d="M722,84.4c4.4-4.3,7.3-10.3,11.6-14.5c12.9-12.4,26.2-18.5,43.9-20.5c4.4-0.5,13.5-0.9,17.8,5.2c1.6,6.5-4.6,11.8-6.8,14.3
	c-4,4.5-9.3,7.4-12.9,12.5c-3.5,5-6.9,10.3-10.1,15.4c-1.7,2.7-2.6,5.9-6,7c-7.6,2.6-11.7-6.1-16.5-9.6c-5.1-3.8-16.6-2.5-19-9.4"/>
<circle fill="#FFFFFF" cx="508.3" cy="479.8" r="374.2"/>
<path d="M878.5,583.9c12.1-39.7,46.5-72.8,46.5-116.5C925,234.1,740.1,45,512,45S99,234.1,99,467.4c0,55.1,22.3,107.8,41.1,156.1
	c0,0,18.6-103.9,42-136.5c23.4-32.6,79.5-49.5,79.5-49.5l24,48l140.4-48l6.5,48.4l159.8-44.5l3.5,42l104.2-48l42.5,46.2l27.8-53
	c0,0,26.9,4.7,64.2,57.8C869.7,536.6,878.5,583.9,878.5,583.9z"/>
<g id="Msczpy_1_" display="none" opacity="0.5">
	
		<image display="inline" overflow="visible" width="487" height="497" id="Msczpy_2_" xlink:href="7AC21F2C270E7B1.jpg"  transform="matrix(1.9141 0 0 1.9141 42.0269 -14.3071)">
	</image>
</g>
<circle cx="301.6" cy="553.5" r="39"/>
<circle cx="723.6" cy="553.5" r="39"/>
<g>
	<g>
		<path d="M422.9,738.2c7,4.9,14.7,9.1,22.4,12.8c17.8,8.6,36.7,14.9,56.7,15.6c29.5,1,59.7-13.1,82.2-31.5c8.4-6.9,7.1-21.2,0-28.3
			c-8.3-8.3-19.9-6.9-28.3,0c-2.6,2.2,4.4-3.4,2.4-1.8c-1.3,1-2.7,2-4.1,2.9c-4.6,3.2-9.4,6-14.3,8.6c-1.5,0.8-3.1,1.6-4.6,2.3
			c-1,0.5-6.8,3-1.5,0.8c-3.6,1.5-7.3,2.8-11,3.9c-3.9,1.2-7.9,2.1-12,2.7c5.5-0.9-1.4,0.1-2.5,0.2c-2.1,0.1-4.1,0.1-6.2,0.1
			c-2,0-4-0.2-6.1-0.4c-2.3-0.3-2-0.2,0.8,0.1c-1-0.2-2-0.3-3-0.5c-4-0.7-7.9-1.8-11.8-3c-3.8-1.1-7.5-2.5-11.1-3.9
			c-2.1-0.8-1.8-0.7,0.9,0.4c-0.8-0.4-1.7-0.7-2.5-1.1c-1.6-0.7-3.2-1.5-4.8-2.3c-7.3-3.5-14.6-7.6-21.2-12.2
			c-8.9-6.3-22.2-1.6-27.4,7.2C409.9,720.9,414,732,422.9,738.2L422.9,738.2z"/>
	</g>
</g>
</svg>
