<?xml version="1.0" encoding="utf-8"?>
<!-- Generator: Adobe Illustrator 16.0.0, SVG Export Plug-In . SVG Version: 6.00 Build 0)  -->
<!DOCTYPE svg PUBLIC "-//W3C//DTD SVG 1.1//EN" "http://www.w3.org/Graphics/SVG/1.1/DTD/svg11.dtd">
<svg version="1.1" id="Layer_1" xmlns="http://www.w3.org/2000/svg" xmlns:xlink="http://www.w3.org/1999/xlink" x="0px" y="0px"
	 width="100px" height="100px" viewBox="0 0 100 100" enable-background="new 0 0 100 100" xml:space="preserve">
<g>
	<g>
		<path fill-rule="evenodd" clip-rule="evenodd" fill="#FFFFFF" d="M49.344,2.063c-26.649,0-48.262,21.603-48.262,48.26
			c0,21.324,13.83,39.417,33.004,45.797c2.409,0.446,3.301-1.049,3.301-2.322c0-1.152-0.045-4.95-0.069-8.987
			c-13.424,2.926-16.259-5.692-16.259-5.692c-2.195-5.576-5.36-7.06-5.36-7.06c-4.378-3,0.33-2.938,0.33-2.938
			c4.848,0.343,7.396,4.977,7.396,4.977c4.309,7.376,11.299,5.239,14.05,4.007c0.435-3.114,1.679-5.248,3.064-6.445
			c-10.72-1.229-21.99-5.363-21.99-23.855c0-5.27,1.888-9.579,4.969-12.955c-0.492-1.216-2.149-6.127,0.469-12.77
			c0,0,4.054-1.297,13.28,4.945c3.846-1.071,7.977-1.604,12.078-1.627c4.103,0.023,8.238,0.556,12.09,1.627
			c9.214-6.243,13.257-4.945,13.257-4.945c2.629,6.642,0.978,11.554,0.475,12.77c3.099,3.376,4.969,7.686,4.969,12.955
			c0,18.539-11.291,22.614-22.039,23.808c1.734,1.501,3.275,4.436,3.275,8.942c0,6.451-0.053,11.65-0.053,13.243
			c0,1.279,0.863,2.787,3.312,2.316c19.166-6.392,32.976-24.473,32.976-45.791C97.605,23.666,75.998,2.063,49.344,2.063z"/>
		<path fill="#FFFFFF" d="M19.359,71.352c-0.104,0.243-0.48,0.319-0.822,0.151c-0.354-0.157-0.55-0.488-0.435-0.725
			c0.104-0.248,0.481-0.319,0.831-0.15C19.284,70.784,19.481,71.115,19.359,71.352L19.359,71.352z M18.766,70.912"/>
		<path fill="#FFFFFF" d="M21.317,73.536c-0.232,0.213-0.683,0.115-0.985-0.222c-0.312-0.34-0.376-0.786-0.142-1.008
			c0.237-0.213,0.674-0.109,0.988,0.228C21.497,72.874,21.554,73.32,21.317,73.536L21.317,73.536z M20.859,73.036"/>
		<path fill="#FFFFFF" d="M23.222,76.314c-0.294,0.203-0.782,0.012-1.082-0.411c-0.296-0.435-0.296-0.949,0.011-1.152
			c0.296-0.207,0.777-0.024,1.077,0.398C23.518,75.59,23.518,76.107,23.222,76.314L23.222,76.314z M23.222,76.314"/>
		<path fill="#FFFFFF" d="M25.829,79.003c-0.267,0.29-0.832,0.207-1.245-0.186c-0.423-0.388-0.537-0.946-0.272-1.235
			c0.27-0.296,0.834-0.213,1.25,0.186C25.982,78.155,26.109,78.714,25.829,79.003L25.829,79.003z M25.829,79.003"/>
		<path fill="#FFFFFF" d="M29.424,80.561c-0.121,0.376-0.66,0.55-1.21,0.388c-0.544-0.169-0.903-0.609-0.791-0.99
			c0.113-0.378,0.658-0.556,1.208-0.388C29.181,79.73,29.534,80.177,29.424,80.561L29.424,80.561z M29.424,80.561"/>
		<path fill="#FFFFFF" d="M33.374,80.851c0.012,0.393-0.451,0.729-1.025,0.735c-0.573,0.009-1.048-0.307-1.048-0.703
			c0-0.405,0.449-0.729,1.026-0.738C32.9,80.132,33.374,80.454,33.374,80.851L33.374,80.851z M33.374,80.851"/>
		<path fill="#FFFFFF" d="M37.046,80.224c0.07,0.388-0.33,0.783-0.897,0.893c-0.556,0.104-1.077-0.139-1.153-0.522
			c-0.066-0.399,0.342-0.799,0.898-0.896C36.464,79.592,36.974,79.831,37.046,80.224L37.046,80.224z M37.046,80.224"/>
	</g>
</g>
</svg>
