<?xml version="1.0" encoding="utf-8"?>
<!-- Generator: Adobe Illustrator 16.0.0, SVG Export Plug-In . SVG Version: 6.00 Build 0)  -->
<!DOCTYPE svg PUBLIC "-//W3C//DTD SVG 1.1//EN" "http://www.w3.org/Graphics/SVG/1.1/DTD/svg11.dtd">
<svg version="1.1" id="Layer_1" xmlns="http://www.w3.org/2000/svg" xmlns:xlink="http://www.w3.org/1999/xlink" x="0px" y="0px"
	 width="100px" height="100px" viewBox="0 0 100 100" enable-background="new 0 0 100 100" xml:space="preserve">
<g id="scholar_1_">
	<g>
		<path fill="none" d="M86.036,8.382c0.121,0.542,0.348,1.084,0.348,1.627c0.018,27.202,0.014,54.405,0.014,81.608
			c-24.123,0-48.255,0-72.378,0c0-19.783,0-39.568,0-59.354c5.351,0,10.706,0,16.128,0c-0.103,5.31,1.503,9.776,5.49,13.179
			c3.953,3.381,8.705,4.157,14.004,3.747c-1.425,3.906-0.529,7.139,1.97,10.324c-1.28,0.141-2.154,0.234-3.028,0.328
			c-5.848,0.619-11.584,1.6-16.639,4.938c-4.038,2.662-6.422,6.35-6.798,11.164c-0.425,5.459,2.877,10.182,8.64,12.752
			c5.51,2.451,11.3,2.756,17.182,2.244c5.965-0.52,11.463-2.35,16.079-6.275c7.144-6.08,8.963-16.834,0.968-23.873
			c-2.617-2.305-5.364-4.482-7.938-6.84c-1.982-1.817-2.127-4.049-0.393-6.11c1.111-1.327,2.458-2.483,3.796-3.587
			c5.606-4.634,7.466-10.424,5.646-17.464c-0.149-0.592,0.133-1.544,0.561-1.992c2.792-2.922,5.678-5.75,8.546-8.595
			c0.215-0.215,0.524-0.336,1.103-0.69c-0.197,1.445-0.265,2.57-0.521,3.648c-0.275,1.181-1.035,2.312-1.053,3.475
			c-0.097,7.175-0.054,14.347-0.045,21.524c0,0.601-0.016,1.221,0.137,1.795c0.365,1.375,1.329,2.18,2.749,2.18
			c1.421,0.007,2.397-0.795,2.752-2.174c0.166-0.629,0.144-1.315,0.144-1.974c0.009-6.875,0-13.745,0.009-20.619
			c0.002-1.696,0.18-3.417-1.542-4.546c-0.213-0.139-0.224-0.639-0.264-0.977c-0.408-3.26-0.014-6.213,3.047-8.201
			C85.241,9.323,85.611,8.806,86.036,8.382z"/>
		<path fill-rule="evenodd" clip-rule="evenodd" fill="#FFFFFF" d="M86.036,8.382c-0.425,0.423-0.795,0.941-1.288,1.262
			c-3.061,1.987-3.455,4.94-3.047,8.201c0.04,0.338,0.051,0.838,0.264,0.977c1.722,1.129,1.544,2.85,1.542,4.546
			c-0.009,6.874,0,13.744-0.009,20.619c0,0.659,0.022,1.344-0.144,1.974c-0.354,1.378-1.331,2.181-2.752,2.174
			c-1.42,0-2.384-0.805-2.749-2.18c-0.152-0.574-0.137-1.194-0.137-1.795c-0.009-7.177-0.052-14.349,0.045-21.524
			c0.018-1.163,0.777-2.294,1.053-3.475c0.256-1.078,0.323-2.203,0.521-3.648c-0.578,0.354-0.888,0.475-1.103,0.69
			c-2.868,2.846-5.754,5.673-8.546,8.595c-0.428,0.448-0.71,1.4-0.561,1.992c1.819,7.04-0.04,12.83-5.646,17.464
			c-1.338,1.104-2.685,2.261-3.796,3.587c-1.734,2.061-1.59,4.293,0.393,6.11c2.574,2.357,5.321,4.535,7.938,6.84
			c7.995,7.039,6.176,17.793-0.968,23.873c-4.616,3.926-10.114,5.756-16.079,6.275c-5.882,0.512-11.672,0.207-17.182-2.244
			c-5.763-2.57-9.065-7.293-8.64-12.752c0.376-4.814,2.761-8.502,6.798-11.164c5.055-3.338,10.791-4.318,16.639-4.938
			c0.874-0.094,1.748-0.188,3.028-0.328c-2.499-3.186-3.395-6.418-1.97-10.324c-5.299,0.41-10.051-0.365-14.004-3.747
			c-3.986-3.403-5.593-7.869-5.49-13.179c-5.422,0-10.778,0-16.128,0c0-0.119,0-0.24,0-0.361c0.336-0.215,0.722-0.376,1-0.652
			c7.3-7.282,14.591-14.569,21.869-21.869c0.278-0.278,0.439-0.664,0.654-1C53.706,8.382,69.87,8.382,86.036,8.382z M53.069,62.207
			c-4.479,0.6-8.703,1.133-12.646,3.025c-4.298,2.062-6.61,5.83-6.178,10.455c0.379,4.027,2.754,6.783,6.205,8.537
			c5.853,2.979,12.063,3.422,18.253,1.414c8.375-2.721,10.096-11.887,3.459-17.682c-1.631-1.424-3.334-2.791-5.141-3.979
			C55.83,63.195,54.392,62.783,53.069,62.207z M60.689,34.943c-0.352-4.786-1.776-10.157-6.083-14.398
			c-2.597-2.555-5.62-3.419-9.11-2.266c-3.48,1.149-5.557,3.625-6.037,7.21c-0.862,6.46,0.722,12.308,4.961,17.334
			c1.479,1.752,3.37,2.906,5.673,3.278C56.215,47.083,60.697,42.79,60.689,34.943z"/>
		<path fill-rule="evenodd" clip-rule="evenodd" fill="none" d="M37.542,8.382c-0.215,0.336-0.376,0.722-0.654,1
			c-7.277,7.3-14.569,14.586-21.869,21.869c-0.278,0.276-0.664,0.437-1,0.652c0-7.84,0-15.68,0-23.521
			C21.857,8.382,29.702,8.382,37.542,8.382z"/>
		<path fill-rule="evenodd" clip-rule="evenodd" fill="none" d="M53.069,62.207c1.322,0.576,2.761,0.988,3.952,1.771
			c1.807,1.188,3.51,2.555,5.141,3.979c6.637,5.795,4.916,14.961-3.459,17.682c-6.189,2.008-12.4,1.564-18.253-1.414
			c-3.451-1.754-5.826-4.51-6.205-8.537c-0.433-4.625,1.88-8.393,6.178-10.455C44.367,63.34,48.59,62.807,53.069,62.207z"/>
		<path fill-rule="evenodd" clip-rule="evenodd" fill="none" d="M60.689,34.943c0.008,7.847-4.475,12.14-10.596,11.159
			c-2.303-0.372-4.194-1.526-5.673-3.278c-4.239-5.026-5.823-10.874-4.961-17.334c0.479-3.585,2.557-6.061,6.037-7.21
			c3.491-1.154,6.514-0.289,9.11,2.266C58.913,24.786,60.338,30.157,60.689,34.943z"/>
	</g>
</g>
</svg>
