<?xml version="1.0" encoding="utf-8"?>
<!-- Generator: Adobe Illustrator 18.0.0, SVG Export Plug-In . SVG Version: 6.00 Build 0)  -->
<!DOCTYPE svg PUBLIC "-//W3C//DTD SVG 1.1//EN" "http://www.w3.org/Graphics/SVG/1.1/DTD/svg11.dtd">
<svg version="1.1" id="Layer_1" xmlns="http://www.w3.org/2000/svg" xmlns:xlink="http://www.w3.org/1999/xlink" x="0px" y="0px"
	 viewBox="0 0 100 100" enable-background="new 0 0 100 100" xml:space="preserve">
<path d="M-543.3,276.9c-12.4,0-23.9,9.3-26.2,19.6c-0.5,2.3-1.1,8.2-1.1,8.2l-5.7,14.4c-0.1,0.3-0.2,0.6-0.2,0.9
	c0,1.2,1,2.2,2.2,2.2h3.7v7.6c0,6,4.8,10.8,10.8,10.8h4.3v8.4h29.2v-23.2c6.4-5,10.5-12.8,10.5-21.5
	C-516,289.1-528.2,276.9-543.3,276.9z"/>
<circle cx="-564.4" cy="307.5" r="2.7"/>
<path d="M-166,276.9c-12.4,0-23.9,9.3-26.2,19.6c-0.5,2.3-1.1,8.2-1.1,8.2s-1.2,7.2-24.1,13.2c-1.6,0.8-1.6,1.7-1.6,2
	c0,1.2,1,2.2,2.2,2.2h17.5h6h4.5c0.6,0,1,0.4,1,1s-0.4,1-1,1h-4.5v6.7c0,6,4,9.8,10,9.8h5.1v8.4h29.2v-23.2
	c6.4-5,10.5-12.8,10.5-21.5C-138.7,289.1-150.9,276.9-166,276.9z"/>
<circle cx="-186.1" cy="306.5" r="2.7"/>
<path d="M-437.4,276.9c-12.4,0-23.9,9.3-26.2,19.6c-0.5,2.3-1.1,8.2-1.1,8.2s-1.2,7.2-24,13.2c-1.6,0.8-1.6,1.7-1.6,2
	c0,1.2,1,2.2,2.2,2.2h23.5v8.7c0,6,4,9.8,10,9.8h5.1v8.4h29.2v-23.2c6.4-5,10.5-12.8,10.5-21.5C-410,289.1-422.2,276.9-437.4,276.9z
	"/>
<circle cx="-457.4" cy="306.5" r="2.7"/>
<line fill="none" stroke="#FFFFFF" stroke-width="2" stroke-linecap="round" stroke-linejoin="round" x1="-470.8" y1="323" x2="-460.2" y2="323"/>
<path d="M37.2,6.4c14.2,0,27.3,11.6,30,24.3c0.6,2.8,1.3,10.2,1.3,10.2s1.4,8.9,27.5,16.4c1.9,1,1.9,2.1,1.9,2.5
	c0,1.5-1.1,2.7-2.5,2.7h-20h-6.9h-5.1c-0.6,0-1.1,0.6-1.1,1.2s0.5,1.2,1.1,1.2h5.1v8.3c0,7.4-4.6,12.1-11.4,12.1h-5.8V96H17.9V67.2
	c-7.3-6.2-12-15.9-12-26.7C5.9,21.7,19.9,6.4,37.2,6.4z M60.2,46.5c1.7,0,3.1-1.5,3.1-3.3c0-1.8-1.4-3.3-3.1-3.3s-3.1,1.5-3.1,3.3
	C57.2,45.1,58.5,46.5,60.2,46.5z"/>
<text transform="matrix(1 0 0 1 22.6641 53.5727)" fill="#FFFFFF" font-family="'Helvetica-Light'" font-size="23.9181">@</text>
</svg>
